ffmpeg started on 2025-05-12 at 20:11:48
Report written to "D:\Convert\FFMetrics\reports\ssim_report-6.txt"
Log level: 32
Command line:
ffmpeg -hide_banner -nostdin -i "G:\\\xc0\xed\xe8\xec\xe5\\\xce\xed\xe3\xee\xe8\xed\xe3\xe8\\!_35_\xcb\xe5\xf2\xee_2024\\DreamCast-1\\\xcf\xee\xeb\xf3\xed\xee\xf7\xed\xfb\xe9 \xf3\xe4\xe0\xf0\\[DC] Mayonaka Punch - 04_Telegram_HEVC.mkv" -i "G:\\\xc0\xed\xe8\xec\xe5\\\xce\xed\xe3\xee\xe8\xed\xe3\xe8\\!_35_\xcb\xe5\xf2\xee_2024\\DreamCast-1\\\xcf\xee\xeb\xf3\xed\xee\xf7\xed\xfb\xe9 \xf3\xe4\xe0\xf0\\[DC] Mayonaka Punch - 04_Telegram.mp4" -lavfi "[0:v]settb=AVTB,setpts=PTS-STARTPTS,format=pix_fmts=yuv420p10,fps=24000/1001,scale=1920:1080:flags=bicubic[main];[1:v]settb=AVTB,setpts=PTS-STARTPTS,format=pix_fmts=yuv420p,fps=24000/1001,scale=1920:1080:flags=bicubic[ref];[main][ref]ssim=eof_action=endall:stats_file='D\\:/Convert/FFMetrics/logs/ssim_logfile-6.txt'" -f null -
Input #0, matroska,webm, from 'G:\Аниме\Онгоинги\!_35_Лето_2024\DreamCast-1\Полуночный удар\[DC] Mayonaka Punch - 04_Telegram_HEVC.mkv':
  Metadata:
    COMPATIBLE_BRANDS: isomiso2avc1mp41
    MAJOR_BRAND     : isom
    MINOR_VERSION   : 512
    ENCODER         : Lavf61.7.100
  Duration: 00:23:46.69, start: -0.021000, bitrate: 978 kb/s
  Stream #0:0: Video: hevc (Main 10), yuv420p10le(tv, bt709, progressive), 1920x1080 [SAR 1:1 DAR 16:9], 23.98 fps, 23.98 tbr, 1k tbn (default)
      Metadata:
        HANDLER_NAME    : VideoHandler
        VENDOR_ID       : [0][0][0][0]
        ENCODER         : Lavc61.19.100 libx265
        BPS             : 781748
        DURATION        : 00:23:46.591708333
        NUMBER_OF_FRAMES: 34204
        NUMBER_OF_BYTES : 139404428
        _STATISTICS_WRITING_APP: mkvpropedit v66.0.0 ('Josie') 64-bit
        _STATISTICS_WRITING_DATE_UTC: 2025-05-10 10:36:24
        _STATISTICS_TAGS: BPS DURATION NUMBER_OF_FRAMES NUMBER_OF_BYTES
  Stream #0:1: Audio: aac (LC), 48000 Hz, stereo, fltp (default)
      Metadata:
        HANDLER_NAME    : SoundHandler
        VENDOR_ID       : [0][0][0][0]
        ENCODER         : Lavc61.19.100 aac
        BPS             : 193210
        DURATION        : 00:23:46.688000000
        NUMBER_OF_FRAMES: 66877
        NUMBER_OF_BYTES : 34456437
        _STATISTICS_WRITING_APP: mkvpropedit v66.0.0 ('Josie') 64-bit
        _STATISTICS_WRITING_DATE_UTC: 2025-05-10 10:36:24
        _STATISTICS_TAGS: BPS DURATION NUMBER_OF_FRAMES NUMBER_OF_BYTES
Input #1, mov,mp4,m4a,3gp,3g2,mj2, from 'G:\Аниме\Онгоинги\!_35_Лето_2024\DreamCast-1\Полуночный удар\[DC] Mayonaka Punch - 04_Telegram.mp4':
  Metadata:
    major_brand     : isom
    minor_version   : 512
    compatible_brands: isomiso2avc1mp41
    encoder         : Lavf61.1.100
  Duration: 00:23:46.66, start: 0.000000, bitrate: 3705 kb/s
  Stream #1:0[0x1](und): Video: h264 (High) (avc1 / 0x31637661), yuv420p(tv, bt709, progressive), 1920x1080 [SAR 1:1 DAR 16:9], 3557 kb/s, 23.98 fps, 23.98 tbr, 24k tbn (default)
      Metadata:
        handler_name    : VideoHandler
        vendor_id       : [0][0][0][0]
        encoder         : Lavc61.3.100 h264_qsv
  Stream #1:1[0x2](und): Audio: aac (HE-AACv2) (mp4a / 0x6134706D), 48000 Hz, stereo, fltp, 144 kb/s (default)
      Metadata:
        handler_name    : SoundHandler
        vendor_id       : [0][0][0][0]
Stream mapping:
  Stream #0:0 (hevc) -> settb:default
  Stream #1:0 (h264) -> settb:default
  ssim:default -> Stream #0:0 (wrapped_avframe)
  Stream #0:1 -> #0:1 (aac (native) -> pcm_s16le (native))
Output #0, null, to 'pipe:':
  Metadata:
    COMPATIBLE_BRANDS: isomiso2avc1mp41
    MAJOR_BRAND     : isom
    MINOR_VERSION   : 512
    encoder         : Lavf61.7.100
  Stream #0:0: Video: wrapped_avframe, yuv420p10le(tv, bt709, progressive), 1920x1080 [SAR 1:1 DAR 16:9], q=2-31, 200 kb/s, 23.98 fps, 23.98 tbn
      Metadata:
        encoder         : Lavc61.19.100 wrapped_avframe
  Stream #0:1: Audio: pcm_s16le, 48000 Hz, stereo, s16, 1536 kb/s (default)
      Metadata:
        HANDLER_NAME    : SoundHandler
        VENDOR_ID       : [0][0][0][0]
        _STATISTICS_TAGS: BPS DURATION NUMBER_OF_FRAMES NUMBER_OF_BYTES
        BPS             : 193210
        DURATION        : 00:23:46.688000000
        NUMBER_OF_FRAMES: 66877
        NUMBER_OF_BYTES : 34456437
        _STATISTICS_WRITING_APP: mkvpropedit v66.0.0 ('Josie') 64-bit
        _STATISTICS_WRITING_DATE_UTC: 2025-05-10 10:36:24
        encoder         : Lavc61.19.100 pcm_s16le
frame=  171 fps=0.0 q=-0.0 size=N/A time=00:00:07.13 bitrate=N/A speed=13.8x    frame=  423 fps=407 q=-0.0 size=N/A time=00:00:17.64 bitrate=N/A speed=  17x    frame=  680 fps=436 q=-0.0 size=N/A time=00:00:28.36 bitrate=N/A speed=18.2x    frame=  938 fps=450 q=-0.0 size=N/A time=00:00:39.12 bitrate=N/A speed=18.8x    frame= 1192 fps=461 q=-0.0 size=N/A time=00:00:49.71 bitrate=N/A speed=19.2x    frame= 1455 fps=468 q=-0.0 size=N/A time=00:01:00.68 bitrate=N/A speed=19.5x    frame= 1722 fps=475 q=-0.0 size=N/A time=00:01:11.82 bitrate=N/A speed=19.8x    frame= 1972 fps=477 q=-0.0 size=N/A time=00:01:22.24 bitrate=N/A speed=19.9x    frame= 2190 fps=471 q=-0.0 size=N/A time=00:01:31.34 bitrate=N/A speed=19.6x    frame= 2360 fps=456 q=-0.0 size=N/A time=00:01:38.43 bitrate=N/A speed=  19x    frame= 2515 fps=443 q=-0.0 size=N/A time=00:01:44.89 bitrate=N/A speed=18.5x    frame= 2722 fps=439 q=-0.0 size=N/A time=00:01:53.53 bitrate=N/A speed=18.3x    frame= 2894 fps=430 q=-0.0 size=N/A time=00:02:00.70 bitrate=N/A speed=  18x    frame= 3069 fps=425 q=-0.0 size=N/A time=00:02:08.00 bitrate=N/A speed=17.7x    frame= 3262 fps=421 q=-0.0 size=N/A time=00:02:16.05 bitrate=N/A speed=17.6x    frame= 3468 fps=419 q=-0.0 size=N/A time=00:02:24.64 bitrate=N/A speed=17.5x    frame= 3659 fps=416 q=-0.0 size=N/A time=00:02:32.61 bitrate=N/A speed=17.4x    frame= 3853 fps=415 q=-0.0 size=N/A time=00:02:40.70 bitrate=N/A speed=17.3x    frame= 4051 fps=413 q=-0.0 size=N/A time=00:02:48.96 bitrate=N/A speed=17.2x    frame= 4241 fps=411 q=-0.0 size=N/A time=00:02:56.88 bitrate=N/A speed=17.1x    frame= 4458 fps=411 q=-0.0 size=N/A time=00:03:05.93 bitrate=N/A speed=17.2x    frame= 4703 fps=414 q=-0.0 size=N/A time=00:03:16.15 bitrate=N/A speed=17.3x    frame= 4928 fps=415 q=-0.0 size=N/A time=00:03:25.53 bitrate=N/A speed=17.3x    frame= 5158 fps=416 q=-0.0 size=N/A time=00:03:35.13 bitrate=N/A speed=17.4x    frame= 5399 fps=418 q=-0.0 size=N/A time=00:03:45.18 bitrate=N/A speed=17.4x    frame= 5657 fps=421 q=-0.0 size=N/A time=00:03:55.94 bitrate=N/A speed=17.6x    frame= 5916 fps=424 q=-0.0 size=N/A time=00:04:06.74 bitrate=N/A speed=17.7x    frame= 6182 fps=427 q=-0.0 size=N/A time=00:04:17.84 bitrate=N/A speed=17.8x    frame= 6447 fps=430 q=-0.0 size=N/A time=00:04:28.89 bitrate=N/A speed=17.9x    frame= 6716 fps=433 q=-0.0 size=N/A time=00:04:40.11 bitrate=N/A speed=18.1x    frame= 6976 fps=436 q=-0.0 size=N/A time=00:04:50.95 bitrate=N/A speed=18.2x    frame= 7243 fps=438 q=-0.0 size=N/A time=00:05:02.09 bitrate=N/A speed=18.3x    frame= 7507 fps=440 q=-0.0 size=N/A time=00:05:13.10 bitrate=N/A speed=18.4x    frame= 7746 fps=441 q=-0.0 size=N/A time=00:05:23.07 bitrate=N/A speed=18.4x    frame= 7984 fps=442 q=-0.0 size=N/A time=00:05:32.99 bitrate=N/A speed=18.4x    frame= 8235 fps=443 q=-0.0 size=N/A time=00:05:43.46 bitrate=N/A speed=18.5x    frame= 8463 fps=443 q=-0.0 size=N/A time=00:05:52.97 bitrate=N/A speed=18.5x    frame= 8696 fps=443 q=-0.0 size=N/A time=00:06:02.69 bitrate=N/A speed=18.5x    frame= 8940 fps=444 q=-0.0 size=N/A time=00:06:12.87 bitrate=N/A speed=18.5x    frame= 9182 fps=444 q=-0.0 size=N/A time=00:06:22.96 bitrate=N/A speed=18.5x    frame= 9417 fps=445 q=-0.0 size=N/A time=00:06:32.76 bitrate=N/A speed=18.6x    frame= 9654 fps=445 q=-0.0 size=N/A time=00:06:42.65 bitrate=N/A speed=18.6x    frame= 9902 fps=446 q=-0.0 size=N/A time=00:06:52.99 bitrate=N/A speed=18.6x    frame=10142 fps=446 q=-0.0 size=N/A time=00:07:03.00 bitrate=N/A speed=18.6x    frame=10389 fps=447 q=-0.0 size=N/A time=00:07:13.30 bitrate=N/A speed=18.7x    frame=10631 fps=448 q=-0.0 size=N/A time=00:07:23.40 bitrate=N/A speed=18.7x    frame=10902 fps=449 q=-0.0 size=N/A time=00:07:34.70 bitrate=N/A speed=18.7x    frame=11152 fps=450 q=-0.0 size=N/A time=00:07:45.13 bitrate=N/A speed=18.8x    frame=11392 fps=450 q=-0.0 size=N/A time=00:07:55.14 bitrate=N/A speed=18.8x    frame=11623 fps=450 q=-0.0 size=N/A time=00:08:04.77 bitrate=N/A speed=18.8x    frame=11856 fps=450 q=-0.0 size=N/A time=00:08:14.49 bitrate=N/A speed=18.8x    frame=12120 fps=451 q=-0.0 size=N/A time=00:08:25.50 bitrate=N/A speed=18.8x    frame=12372 fps=452 q=-0.0 size=N/A time=00:08:36.01 bitrate=N/A speed=18.9x    frame=12604 fps=452 q=-0.0 size=N/A time=00:08:45.73 bitrate=N/A speed=18.9x    frame=12864 fps=453 q=-0.0 size=N/A time=00:08:56.53 bitrate=N/A speed=18.9x    frame=13097 fps=453 q=-0.0 size=N/A time=00:09:06.25 bitrate=N/A speed=18.9x    frame=13318 fps=453 q=-0.0 size=N/A time=00:09:15.47 bitrate=N/A speed=18.9x    frame=13579 fps=453 q=-0.0 size=N/A time=00:09:26.35 bitrate=N/A speed=18.9x    frame=13852 fps=455 q=-0.0 size=N/A time=00:09:37.74 bitrate=N/A speed=  19x    frame=14107 fps=455 q=-0.0 size=N/A time=00:09:48.37 bitrate=N/A speed=  19x    frame=14329 fps=455 q=-0.0 size=N/A time=00:09:57.63 bitrate=N/A speed=  19x    frame=14588 fps=456 q=-0.0 size=N/A time=00:10:08.44 bitrate=N/A speed=  19x    frame=14830 fps=456 q=-0.0 size=N/A time=00:10:18.53 bitrate=N/A speed=  19x    frame=15089 fps=456 q=-0.0 size=N/A time=00:10:29.33 bitrate=N/A speed=  19x    frame=15333 fps=457 q=-0.0 size=N/A time=00:10:39.51 bitrate=N/A speed=19.1x    frame=15547 fps=456 q=-0.0 size=N/A time=00:10:48.43 bitrate=N/A speed=  19x    frame=15739 fps=455 q=-0.0 size=N/A time=00:10:56.44 bitrate=N/A speed=  19x    frame=15973 fps=455 q=-0.0 size=N/A time=00:11:06.20 bitrate=N/A speed=  19x    frame=16213 fps=455 q=-0.0 size=N/A time=00:11:16.21 bitrate=N/A speed=  19x    frame=16470 fps=456 q=-0.0 size=N/A time=00:11:26.93 bitrate=N/A speed=  19x    frame=16743 fps=457 q=-0.0 size=N/A time=00:11:38.32 bitrate=N/A speed=  19x    frame=16992 fps=457 q=-0.0 size=N/A time=00:11:48.70 bitrate=N/A speed=19.1x    frame=17273 fps=458 q=-0.0 size=N/A time=00:12:00.42 bitrate=N/A speed=19.1x    frame=17513 fps=458 q=-0.0 size=N/A time=00:12:10.43 bitrate=N/A speed=19.1x    frame=17744 fps=458 q=-0.0 size=N/A time=00:12:20.07 bitrate=N/A speed=19.1x    frame=17958 fps=458 q=-0.0 size=N/A time=00:12:28.99 bitrate=N/A speed=19.1x    frame=18194 fps=458 q=-0.0 size=N/A time=00:12:38.84 bitrate=N/A speed=19.1x    frame=18464 fps=459 q=-0.0 size=N/A time=00:12:50.10 bitrate=N/A speed=19.1x    frame=18706 fps=459 q=-0.0 size=N/A time=00:13:00.19 bitrate=N/A speed=19.1x    frame=18975 fps=459 q=-0.0 size=N/A time=00:13:11.41 bitrate=N/A speed=19.2x    frame=19237 fps=460 q=-0.0 size=N/A time=00:13:22.34 bitrate=N/A speed=19.2x    frame=19482 fps=460 q=-0.0 size=N/A time=00:13:32.56 bitrate=N/A speed=19.2x    frame=19723 fps=460 q=-0.0 size=N/A time=00:13:42.61 bitrate=N/A speed=19.2x    frame=19956 fps=460 q=-0.0 size=N/A time=00:13:52.33 bitrate=N/A speed=19.2x    frame=20225 fps=461 q=-0.0 size=N/A time=00:14:03.55 bitrate=N/A speed=19.2x    frame=20483 fps=461 q=-0.0 size=N/A time=00:14:14.31 bitrate=N/A speed=19.2x    frame=20720 fps=461 q=-0.0 size=N/A time=00:14:24.19 bitrate=N/A speed=19.2x    frame=20968 fps=462 q=-0.0 size=N/A time=00:14:34.54 bitrate=N/A speed=19.3x    frame=21226 fps=462 q=-0.0 size=N/A time=00:14:45.30 bitrate=N/A speed=19.3x    frame=21444 fps=462 q=-0.0 size=N/A time=00:14:54.39 bitrate=N/A speed=19.3x    frame=21625 fps=460 q=-0.0 size=N/A time=00:15:01.94 bitrate=N/A speed=19.2x    frame=21871 fps=461 q=-0.0 size=N/A time=00:15:12.20 bitrate=N/A speed=19.2x    frame=22139 fps=461 q=-0.0 size=N/A time=00:15:23.38 bitrate=N/A speed=19.2x    frame=22402 fps=462 q=-0.0 size=N/A time=00:15:34.35 bitrate=N/A speed=19.3x    frame=22662 fps=462 q=-0.0 size=N/A time=00:15:45.19 bitrate=N/A speed=19.3x    frame=22910 fps=462 q=-0.0 size=N/A time=00:15:55.53 bitrate=N/A speed=19.3x    frame=23160 fps=463 q=-0.0 size=N/A time=00:16:05.96 bitrate=N/A speed=19.3x    frame=23407 fps=463 q=-0.0 size=N/A time=00:16:16.26 bitrate=N/A speed=19.3x    frame=23657 fps=463 q=-0.0 size=N/A time=00:16:26.69 bitrate=N/A speed=19.3x    frame=23894 fps=463 q=-0.0 size=N/A time=00:16:36.57 bitrate=N/A speed=19.3x    frame=24131 fps=463 q=-0.0 size=N/A time=00:16:46.46 bitrate=N/A speed=19.3x    frame=24366 fps=463 q=-0.0 size=N/A time=00:16:56.26 bitrate=N/A speed=19.3x    frame=24602 fps=463 q=-0.0 size=N/A time=00:17:06.10 bitrate=N/A speed=19.3x    frame=24829 fps=463 q=-0.0 size=N/A time=00:17:15.57 bitrate=N/A speed=19.3x    frame=25084 fps=463 q=-0.0 size=N/A time=00:17:26.21 bitrate=N/A speed=19.3x    frame=25356 fps=463 q=-0.0 size=N/A time=00:17:37.55 bitrate=N/A speed=19.3x    frame=25625 fps=464 q=-0.0 size=N/A time=00:17:48.77 bitrate=N/A speed=19.3x    frame=25899 fps=465 q=-0.0 size=N/A time=00:18:00.20 bitrate=N/A speed=19.4x    frame=26159 fps=465 q=-0.0 size=N/A time=00:18:11.04 bitrate=N/A speed=19.4x    frame=26414 fps=465 q=-0.0 size=N/A time=00:18:21.68 bitrate=N/A speed=19.4x    frame=26664 fps=465 q=-0.0 size=N/A time=00:18:32.11 bitrate=N/A speed=19.4x    frame=26866 fps=465 q=-0.0 size=N/A time=00:18:40.53 bitrate=N/A speed=19.4x    frame=27078 fps=464 q=-0.0 size=N/A time=00:18:49.37 bitrate=N/A speed=19.4x    frame=27303 fps=464 q=-0.0 size=N/A time=00:18:58.76 bitrate=N/A speed=19.4x    frame=27508 fps=463 q=-0.0 size=N/A time=00:19:07.31 bitrate=N/A speed=19.3x    frame=27715 fps=463 q=-0.0 size=N/A time=00:19:15.94 bitrate=N/A speed=19.3x    frame=27952 fps=463 q=-0.0 size=N/A time=00:19:25.83 bitrate=N/A speed=19.3x    frame=28177 fps=463 q=-0.0 size=N/A time=00:19:35.21 bitrate=N/A speed=19.3x    frame=28388 fps=462 q=-0.0 size=N/A time=00:19:44.01 bitrate=N/A speed=19.3x    frame=28597 fps=462 q=-0.0 size=N/A time=00:19:52.73 bitrate=N/A speed=19.3x    frame=28805 fps=461 q=-0.0 size=N/A time=00:20:01.40 bitrate=N/A speed=19.2x    frame=29055 fps=461 q=-0.0 size=N/A time=00:20:11.83 bitrate=N/A speed=19.2x    frame=29263 fps=461 q=-0.0 size=N/A time=00:20:20.51 bitrate=N/A speed=19.2x    frame=29489 fps=461 q=-0.0 size=N/A time=00:20:29.93 bitrate=N/A speed=19.2x    frame=29705 fps=460 q=-0.0 size=N/A time=00:20:38.94 bitrate=N/A speed=19.2x    frame=29933 fps=460 q=-0.0 size=N/A time=00:20:48.45 bitrate=N/A speed=19.2x    frame=30162 fps=460 q=-0.0 size=N/A time=00:20:58.00 bitrate=N/A speed=19.2x    frame=30362 fps=460 q=-0.0 size=N/A time=00:21:06.34 bitrate=N/A speed=19.2x    frame=30582 fps=459 q=-0.0 size=N/A time=00:21:15.52 bitrate=N/A speed=19.2x    frame=30829 fps=459 q=-0.0 size=N/A time=00:21:25.82 bitrate=N/A speed=19.2x    frame=31060 fps=459 q=-0.0 size=N/A time=00:21:35.46 bitrate=N/A speed=19.2x    frame=31304 fps=460 q=-0.0 size=N/A time=00:21:45.63 bitrate=N/A speed=19.2x    frame=31534 fps=459 q=-0.0 size=N/A time=00:21:55.23 bitrate=N/A speed=19.2x    frame=31754 fps=459 q=-0.0 size=N/A time=00:22:04.40 bitrate=N/A speed=19.2x    frame=31994 fps=459 q=-0.0 size=N/A time=00:22:14.41 bitrate=N/A speed=19.2x    frame=32260 fps=460 q=-0.0 size=N/A time=00:22:25.51 bitrate=N/A speed=19.2x    frame=32490 fps=459 q=-0.0 size=N/A time=00:22:35.10 bitrate=N/A speed=19.2x    frame=32699 fps=459 q=-0.0 size=N/A time=00:22:43.82 bitrate=N/A speed=19.1x    frame=32896 fps=459 q=-0.0 size=N/A time=00:22:52.03 bitrate=N/A speed=19.1x    frame=33130 fps=459 q=-0.0 size=N/A time=00:23:01.79 bitrate=N/A speed=19.1x    frame=33364 fps=459 q=-0.0 size=N/A time=00:23:11.55 bitrate=N/A speed=19.1x    frame=33611 fps=459 q=-0.0 size=N/A time=00:23:21.85 bitrate=N/A speed=19.1x    frame=33867 fps=459 q=-0.0 size=N/A time=00:23:32.53 bitrate=N/A speed=19.1x    frame=34084 fps=459 q=-0.0 size=N/A time=00:23:41.58 bitrate=N/A speed=19.1x    [Parsed_ssim_10 @ 000002724d01c300] SSIM Y:0.994002 (22.219626) U:0.994503 (22.598665) V:0.994331 (22.464924) All:0.994140 (22.321046)
[out#0/null @ 000002724b904340] video:14697KiB audio:267508KiB subtitle:0KiB other streams:0KiB global headers:0KiB muxing overhead: unknown
frame=34204 fps=458 q=-0.0 Lsize=N/A time=00:23:46.59 bitrate=N/A speed=19.1x    
